<svg width="48" height="48" viewBox="0 0 48 48" fill="none" xmlns="http://www.w3.org/2000/svg">
<rect width="48" height="48" fill="#00050B"/>
<path d="M15.9108 30.8532H36.9196V30.8466C37.7158 30.8101 38.4934 30.5989 39.1954 30.2284C39.8973 29.858 40.5056 29.3377 40.9755 28.7059C41.4453 28.0741 41.7648 27.3469 41.9104 26.5779C42.056 25.8089 42.0239 25.0176 41.8166 24.2623C41.6092 23.5071 41.2319 22.8071 40.7124 22.2139C40.1929 21.6207 39.5444 21.1495 38.8147 20.8349C38.085 20.5203 37.2927 20.3704 36.4962 20.3961C35.6996 20.4219 34.9191 20.6226 34.2121 20.9837C33.7757 19.9951 33.1153 19.1172 32.2811 18.4169C31.447 17.7166 30.461 17.2123 29.3982 16.9424M11.404 16.9424C9.85699 17.3339 8.48653 18.219 7.50825 19.4586C6.52996 20.6982 5.99938 22.2218 6 23.7897C6.00062 25.3576 6.53239 26.8808 7.51165 28.1196C8.4909 29.3585 9.86206 30.2426 11.4094 30.6329" stroke="white" stroke-width="1.38462" stroke-linecap="round" stroke-linejoin="round"/>
<path d="M19.7148 21.2777L16.9119 22.2443L18.1454 24.8119" stroke="#21FA90" stroke-width="1.38462" stroke-linecap="round" stroke-linejoin="round"/>
<path d="M16.975 22.2898C18.2531 23.0275 19.7437 23.3299 21.2151 23.15C22.6864 22.9702 24.056 22.3182 25.1107 21.2954C26.1655 20.2727 26.8462 18.9365 27.0472 17.4948C27.2481 16.053 26.9579 14.5865 26.2218 13.3234C25.4856 12.0602 24.3448 11.0712 22.9767 10.5102C21.6086 9.94921 20.0899 9.84766 18.6569 10.2213C17.2239 10.595 15.9569 11.423 15.053 12.5765C14.1491 13.73 13.6589 15.1443 13.6587 16.5995V26.4432" stroke="#21FA90" stroke-width="1.38462" stroke-linecap="round" stroke-linejoin="round"/>
<path opacity="0.2" d="M13.6587 36.8501V38" stroke="#21FA90" stroke-width="1.38462" stroke-linecap="round" stroke-linejoin="round"/>
<path opacity="0.4" d="M13.6694 33.2314V35.048" stroke="#21FA90" stroke-width="1.38462" stroke-linecap="round" stroke-linejoin="round"/>
<path opacity="0.7" d="M13.6587 28.3138V31.3509" stroke="#21FA90" stroke-width="1.38462" stroke-linecap="round" stroke-linejoin="round"/>
</svg>