<svg width="1270" height="544" viewBox="0 0 1270 544" fill="none" xmlns="http://www.w3.org/2000/svg">
<g filter="url(#filter0_d_8313_4474)">
<path d="M635 149L717.272 196.5V291.5L635 339L552.728 291.5V196.5L635 149Z" fill="#00050B"/>
<path d="M635 149L717.272 196.5V291.5L635 339L552.728 291.5V196.5L635 149Z" stroke="#21FA90"/>
</g>
<path d="M544.067 223.5V191.5L635 139L680.466 165.25M536.5 251.5L544 257L544.067 257.5V296.5L590.5 323.5L599.5 334.504L635 355L731.129 299.5V251.5M725.933 265V296.5L635 349L605.5 332M733.5 236.5L725.933 228V191.5L703.2 178.375L691.833 171.812L686 163L635 133L538.871 188.5L538.871 232M489.5 252.5H528.5L538.871 260.5L538.871 299.5L587.369 327.5L594.5 339L607 346.5M759 235H738.5L731.129 227V188.5L703.2 171.812" stroke="white" stroke-opacity="0.15"/>
<circle cx="701.72" cy="170.72" r="2" transform="rotate(60.9316 701.72 170.72)" stroke="white" stroke-opacity="0.15"/>
<path d="M608.036 267.284H678.065V267.261C680.719 267.137 683.311 266.415 685.651 265.148C687.991 263.882 690.019 262.103 691.585 259.943C693.151 257.784 694.216 255.298 694.701 252.669C695.186 250.04 695.08 247.335 694.388 244.754C693.697 242.172 692.44 239.779 690.708 237.752C688.976 235.724 686.815 234.113 684.382 233.038C681.95 231.962 679.309 231.45 676.654 231.538C673.999 231.626 671.397 232.312 669.04 233.546C667.586 230.167 665.384 227.166 662.604 224.772C659.823 222.378 656.537 220.654 652.994 219.731M593.013 219.731C587.857 221.07 583.288 224.096 580.027 228.333C576.767 232.57 574.998 237.778 575 243.138C575.002 248.498 576.775 253.705 580.039 257.939C583.303 262.174 587.874 265.197 593.031 266.531" stroke="white" stroke-width="4.28571" stroke-linecap="round" stroke-linejoin="round"/>
<path d="M620.716 234.551L611.373 237.856L615.485 246.633" stroke="#21FA90" stroke-width="4.28571" stroke-linecap="round" stroke-linejoin="round"/>
<path d="M611.583 238.011C615.844 240.533 620.813 241.566 625.717 240.952C630.622 240.337 635.187 238.108 638.702 234.612C642.218 231.116 644.487 226.548 645.157 221.62C645.827 216.691 644.86 211.678 642.406 207.36C639.952 203.043 636.149 199.662 631.589 197.744C627.029 195.826 621.966 195.479 617.19 196.757C612.413 198.034 608.19 200.864 605.177 204.807C602.164 208.75 600.53 213.585 600.529 218.559V252.209" stroke="#21FA90" stroke-width="4.28571" stroke-linecap="round" stroke-linejoin="round"/>
<path opacity="0.2" d="M600.529 287.783V291.714" stroke="#21FA90" stroke-width="4.28571" stroke-linecap="round" stroke-linejoin="round"/>
<path opacity="0.4" d="M600.565 275.414V281.623" stroke="#21FA90" stroke-width="4.28571" stroke-linecap="round" stroke-linejoin="round"/>
<path opacity="0.7" d="M600.529 258.604V268.985" stroke="#21FA90" stroke-width="4.28571" stroke-linecap="round" stroke-linejoin="round"/>
<circle cx="531.964" cy="217.72" r="2" transform="rotate(60.9316 531.964 217.72)" stroke="white" stroke-opacity="0.15"/>
<circle cx="531.771" cy="223.548" r="2" transform="rotate(60.9316 531.771 223.548)" stroke="white" stroke-opacity="0.15"/>
<circle cx="531.578" cy="229.375" r="2" transform="rotate(60.9316 531.578 229.375)" stroke="white" stroke-opacity="0.15"/>
<path d="M211 93L260.363 121.5V178.5L211 207L161.637 178.5V121.5L211 93Z" stroke="white" stroke-opacity="0.15"/>
<path d="M211 101L231.785 113V137L211 149L190.215 137V113L211 101Z" stroke="white" stroke-opacity="0.05"/>
<path d="M235 140L255.785 152V176L235 188L214.215 176V152L235 140Z" stroke="white" stroke-opacity="0.05"/>
<path d="M187 140L207.785 152V176L187 188L166.215 176V152L187 140Z" stroke="white" stroke-opacity="0.05"/>
<path d="M263 375L283.785 387V411L263 423L242.215 411V387L263 375Z" stroke="white" stroke-opacity="0.05"/>
<path d="M287 414L307.785 426V450L287 462L266.215 450V426L287 414Z" stroke="white" stroke-opacity="0.05"/>
<path d="M239 414L259.785 426V450L239 462L218.215 450V426L239 414Z" stroke="white" stroke-opacity="0.05"/>
<path d="M211 275L260.363 303.5V360.5L211 389L161.637 360.5V303.5L211 275Z" stroke="white" stroke-opacity="0.15"/>
<path d="M315 276L364.363 304.5V361.5L315 390L265.637 361.5V304.5L315 276Z" fill="#00050B" fill-opacity="0.3" stroke="white" stroke-opacity="0.05"/>
<path d="M315 92L364.363 120.5V177.5L315 206L265.637 177.5V120.5L315 92Z" fill="white" fill-opacity="0.05" stroke="white" stroke-opacity="0.1"/>
<path d="M157 184L206.363 212.5V269.5L157 298L107.637 269.5V212.5L157 184Z" fill="#00050B" fill-opacity="0.3" stroke="white" stroke-opacity="0.15"/>
<path d="M157 367L206.363 395.5V452.5L157 481L107.637 452.5V395.5L157 367Z" fill="white" fill-opacity="0.1" stroke="white" stroke-opacity="0.3"/>
<path d="M157 1L206.363 29.5V86.5L157 115L107.637 86.5V29.5L157 1Z" fill="#00050B" fill-opacity="0.15" stroke="white" stroke-opacity="0.3"/>
<g filter="url(#filter1_d_8313_4474)">
<path d="M263 184L312.363 212.5V269.5L263 298L213.637 269.5V212.5L263 184Z" fill="#00050B"/>
<path d="M263 184L312.363 212.5V269.5L263 298L213.637 269.5V212.5L263 184Z" stroke="white"/>
</g>
<rect x="247" y="227" width="30" height="20" rx="1" stroke="white" stroke-width="2"/>
<rect x="257" y="247" width="10" height="5" stroke="white" stroke-width="2"/>
<path d="M252 253C252 252.448 252.448 252 253 252H271C271.552 252 272 252.448 272 253V257H252V253Z" stroke="white" stroke-width="2"/>
<g filter="url(#filter2_d_8313_4474)">
<path d="M106 93L155.363 121.5V178.5L106 207L56.6366 178.5V121.5L106 93Z" fill="#00050B"/>
<path d="M106 93L155.363 121.5V178.5L106 207L56.6366 178.5V121.5L106 93Z" stroke="white"/>
</g>
<path d="M312.5 242.5H552" stroke="white"/>
<g filter="url(#filter3_d_8313_4474)">
<path d="M106 275L155.363 303.5V360.5L106 389L56.6366 360.5V303.5L106 275Z" fill="#00050B"/>
<path d="M106 275L155.363 303.5V360.5L106 389L56.6366 360.5V303.5L106 275Z" stroke="white"/>
</g>
<path d="M320 216V230L325 235H349.5M366 299L320 271V249.5" stroke="white" stroke-opacity="0.15"/>
<path d="M375.5 354V294.5L330.5 267.5V258.5" stroke="white" stroke-opacity="0.15"/>
<path d="M384 347.5V291L347.458 269" stroke="white" stroke-opacity="0.15"/>
<circle cx="330" cy="256" r="2" stroke="white" stroke-opacity="0.15"/>
<circle cx="352" cy="235" r="2" stroke="white" stroke-opacity="0.15"/>
<circle cx="250" cy="110" r="2" stroke="white" stroke-opacity="0.15"/>
<circle cx="255" cy="113" r="2" stroke="white" stroke-opacity="0.15"/>
<circle cx="260" cy="116" r="2" stroke="white" stroke-opacity="0.15"/>
<circle cx="8" cy="82" r="2" stroke="white" stroke-opacity="0.15"/>
<circle cx="13" cy="85" r="2" stroke="white" stroke-opacity="0.15"/>
<circle cx="18" cy="88" r="2" stroke="white" stroke-opacity="0.15"/>
<circle cx="296" cy="413" r="2" stroke="white" stroke-opacity="0.15"/>
<circle cx="301" cy="416" r="2" stroke="white" stroke-opacity="0.15"/>
<circle cx="306" cy="419" r="2" stroke="white" stroke-opacity="0.15"/>
<circle cx="384" cy="349" r="2" stroke="white" stroke-opacity="0.15"/>
<path d="M99.5 270V212.5L89.75 206.442M48 122V180.5L73.75 196.5L82.6905 211L91.5 218.5V263M41 130V185.5L67.5 201.709L79.5 218.5V235" stroke="white" stroke-opacity="0.15"/>
<circle cx="80" cy="237" r="2" stroke="white" stroke-opacity="0.15"/>
<circle cx="88" cy="205" r="2" stroke="white" stroke-opacity="0.15"/>
<circle cx="48" cy="120" r="2" stroke="white" stroke-opacity="0.15"/>
<path d="M46 319.5V363.5L100.5 396V447.5" stroke="white" stroke-opacity="0.15"/>
<path d="M39 307V367.5L93.5 400V425.5" stroke="white" stroke-opacity="0.15"/>
<circle cx="101" cy="449" r="2" stroke="white" stroke-opacity="0.15"/>
<circle cx="93" cy="427" r="2" stroke="white" stroke-opacity="0.15"/>
<circle cx="39" cy="305" r="2" stroke="white" stroke-opacity="0.15"/>
<circle cx="46" cy="317" r="2" stroke="white" stroke-opacity="0.15"/>
<path d="M213 453V397.5L263 368L312 397.5" stroke="white" stroke-opacity="0.15"/>
<path d="M100 29L100 84.5L50 114L1 84.5" stroke="white" stroke-opacity="0.15"/>
<path d="M57 544V488.5L107 459L156 488.5" stroke="white" stroke-opacity="0.15"/>
<rect x="90" y="317" width="30" height="20" rx="1" stroke="white" stroke-width="2"/>
<rect x="100" y="337" width="10" height="5" stroke="white" stroke-width="2"/>
<path d="M95 343C95 342.448 95.4477 342 96 342H114C114.552 342 115 342.448 115 343V347H95V343Z" stroke="white" stroke-width="2"/>
<path d="M1113 1L1063.64 29.5V86.5L1113 115L1162.36 86.5V29.5L1113 1Z" fill="#00050B" fill-opacity="0.3" stroke="white" stroke-opacity="0.3"/>
<path d="M1008 367L958.637 395.5V452.5L1008 481L1057.36 452.5V395.5L1008 367Z" fill="white" fill-opacity="0.1" stroke="white" stroke-opacity="0.3"/>
<g filter="url(#filter4_d_8313_4474)">
<path d="M1164 275L1114.64 303.5V360.5L1164 389L1213.36 360.5V303.5L1164 275Z" fill="#00050B"/>
<path d="M1164 275L1114.64 303.5V360.5L1164 389L1213.36 360.5V303.5L1164 275Z" stroke="white"/>
</g>
<path d="M1185.27 308H1175.82V317.455H1185.27V308Z" fill="#00050B"/>
<path d="M1190 308H1180.54V317.455H1190V308Z" fill="#F7D046"/>
<path d="M1147.46 308H1138V317.455H1147.46V308Z" fill="#00050B"/>
<path d="M1147.46 317.455H1138V326.911H1147.46V317.455Z" fill="#00050B"/>
<path d="M1147.46 326.909H1138V336.364H1147.46V326.909Z" fill="#00050B"/>
<path d="M1147.46 336.364H1138V345.82H1147.46V336.364Z" fill="#00050B"/>
<path d="M1147.46 345.818H1138V355.273H1147.46V345.818Z" fill="#00050B"/>
<path d="M1152.18 308H1142.73V317.455H1152.18V308Z" fill="#F7D046"/>
<path d="M1190 317.455H1180.54V326.911H1190V317.455Z" fill="#F2A73B"/>
<path d="M1152.18 317.455H1142.73V326.911H1152.18V317.455Z" fill="#F2A73B"/>
<path d="M1175.82 317.455H1166.36V326.911H1175.82V317.455Z" fill="#00050B"/>
<path d="M1180.55 317.455H1171.09V326.911H1180.55V317.455Z" fill="#F2A73B"/>
<path d="M1161.64 317.455H1152.18V326.911H1161.64V317.455Z" fill="#F2A73B"/>
<path d="M1171.09 326.909H1161.64V336.364H1171.09V326.909Z" fill="#EE792F"/>
<path d="M1180.55 326.909H1171.09V336.364H1180.55V326.909Z" fill="#EE792F"/>
<path d="M1161.64 326.909H1152.18V336.364H1161.64V326.909Z" fill="#EE792F"/>
<path d="M1166.36 336.364H1156.91V345.82H1166.36V336.364Z" fill="#00050B"/>
<path d="M1171.09 336.364H1161.64V345.82H1171.09V336.364Z" fill="#EB5829"/>
<path d="M1190 326.909H1180.54V336.364H1190V326.909Z" fill="#EE792F"/>
<path d="M1152.18 326.909H1142.73V336.364H1152.18V326.909Z" fill="#EE792F"/>
<path d="M1185.27 336.364H1175.82V345.82H1185.27V336.364Z" fill="#00050B"/>
<path d="M1190 336.364H1180.54V345.82H1190V336.364Z" fill="#EB5829"/>
<path d="M1185.27 345.818H1175.82V355.273H1185.27V345.818Z" fill="#00050B"/>
<path d="M1152.18 336.364H1142.73V345.82H1152.18V336.364Z" fill="#EB5829"/>
<path d="M1190 345.818H1180.54V355.273H1190V345.818Z" fill="#EA3326"/>
<path d="M1152.18 345.818H1142.73V355.273H1152.18V345.818Z" fill="#EA3326"/>
<path d="M1009.64 143L1009.64 121.5L1059 93L1108.36 121.5V143.5M1009.64 157V178.5L1059 207L1108.36 178.5V157" stroke="white" stroke-opacity="0.15"/>
<path d="M991 151L1002.36 144V121.5L953 93L903.637 121.5V178.5L915.318 185.25M984 168L996.5 160.5L1002.36 156.5V178.5L953 207L937 197.5H913.5" stroke="white" stroke-opacity="0.15"/>
<path d="M1113 8L1092.22 20V44L1113 56L1133.78 44V20L1113 8Z" stroke="white" stroke-opacity="0.1"/>
<path d="M1089 47L1068.22 59V83L1089 95L1109.78 83V59L1089 47Z" stroke="white" stroke-opacity="0.1"/>
<path d="M1137 47L1116.22 59V83L1137 95L1157.78 83V59L1137 47Z" stroke="white" stroke-opacity="0.1"/>
<path d="M1111 375L1090.22 387V411L1111 423L1131.78 411V387L1111 375Z" stroke="white" stroke-opacity="0.05"/>
<path d="M1087 414L1066.22 426V450L1087 462L1107.78 450V426L1087 414Z" stroke="white" stroke-opacity="0.05"/>
<path d="M1135 414L1114.22 426V450L1135 462L1155.78 450V426L1135 414Z" stroke="white" stroke-opacity="0.05"/>
<path d="M1010 348V360.5L1059.36 389L1108.73 360.5V340.5M1040.86 321.5H1013.86L1010 318.25L1010 303.5L1059.36 275L1108.73 303.5V327.5" stroke="white" stroke-opacity="0.15"/>
<path d="M906 304.5V361.5L955.363 390L1004.73 361.5V342L1009.86 339H1020.36M919.863 296.496L955.363 276L1004.73 304.5V323.5L1009.86 328H1068.86" stroke="white" stroke-opacity="0.05"/>
<path d="M1113 184L1063.64 212.5V269.5L1113 298L1162.36 269.5V212.5L1113 184Z" fill="white" fill-opacity="0.05" stroke="white" stroke-opacity="0.15"/>
<g filter="url(#filter5_d_8313_4474)">
<path d="M1007 184L957.637 212.5V269.5L1007 298L1056.36 269.5V212.5L1007 184Z" fill="#00050B"/>
<path d="M1007 184L957.637 212.5V269.5L1007 298L1056.36 269.5V212.5L1007 184Z" stroke="white"/>
</g>
<path d="M1028.57 236.669C1029.16 234.886 1029.37 232.998 1029.17 231.129C1028.98 229.261 1028.39 227.456 1027.44 225.836C1026.04 223.384 1023.9 221.444 1021.33 220.293C1018.76 219.142 1015.89 218.843 1013.14 219.435C1011.9 218.03 1010.38 216.908 1008.67 216.143C1006.96 215.378 1005.11 214.988 1003.24 215C1000.43 214.993 997.684 215.884 995.408 217.544C993.131 219.204 991.438 221.547 990.573 224.236C988.74 224.613 987.009 225.379 985.495 226.482C983.98 227.585 982.719 229.001 981.794 230.634C980.382 233.079 979.779 235.911 980.072 238.723C980.366 241.534 981.541 244.179 983.427 246.277C982.836 248.058 982.632 249.947 982.826 251.816C983.021 253.685 983.611 255.489 984.556 257.11C985.956 259.562 988.097 261.502 990.668 262.653C993.238 263.804 996.106 264.103 998.857 263.51C1000.1 264.915 1001.62 266.037 1003.33 266.803C1005.04 267.567 1006.89 267.957 1008.76 267.945C1011.57 267.952 1014.32 267.062 1016.6 265.4C1018.87 263.739 1020.57 261.395 1021.43 258.704C1023.26 258.327 1024.99 257.562 1026.51 256.459C1028.02 255.356 1029.28 253.94 1030.21 252.306C1031.62 249.862 1032.22 247.031 1031.93 244.22C1031.63 241.41 1030.46 238.766 1028.57 236.67M1008.76 264.484C1006.45 264.488 1004.22 263.675 1002.44 262.188C1002.52 262.144 1002.66 262.066 1002.75 262.01L1013.25 255.921C1013.51 255.771 1013.73 255.552 1013.88 255.289C1014.03 255.025 1014.11 254.726 1014.11 254.422V239.56L1018.55 242.133C1018.57 242.145 1018.59 242.161 1018.6 242.183C1018.62 242.204 1018.63 242.229 1018.63 242.254V254.563C1018.63 257.191 1017.59 259.712 1015.74 261.571C1013.89 263.431 1011.38 264.478 1008.77 264.484M987.544 255.378C986.386 253.37 985.97 251.016 986.366 248.73C986.444 248.776 986.58 248.861 986.678 248.917L997.172 255.006C997.433 255.16 997.731 255.241 998.033 255.241C998.336 255.241 998.634 255.16 998.895 255.006L1011.71 247.576V252.721C1011.71 252.748 1011.7 252.774 1011.69 252.798C1011.68 252.821 1011.66 252.842 1011.64 252.858L1001.04 259.011C998.767 260.324 996.071 260.679 993.543 259.998C991.013 259.317 988.856 257.656 987.545 255.381M984.785 232.367C985.938 230.355 987.757 228.816 989.926 228.017C989.926 228.107 989.921 228.268 989.921 228.38V240.559C989.919 240.863 989.998 241.162 990.149 241.426C990.3 241.689 990.518 241.907 990.782 242.058L1003.59 249.488L999.158 252.061C999.136 252.075 999.11 252.084 999.084 252.086C999.058 252.088 999.032 252.084 999.007 252.074L988.398 245.916C986.133 244.598 984.481 242.432 983.803 239.892C983.125 237.352 983.478 234.646 984.784 232.367M1021.22 240.885L1008.41 233.455L1012.85 230.882C1012.87 230.868 1012.9 230.859 1012.92 230.857C1012.95 230.855 1012.97 230.86 1013 230.869L1023.61 237.022C1025.23 237.965 1026.56 239.353 1027.42 241.025C1028.29 242.697 1028.67 244.582 1028.51 246.462C1028.35 248.34 1027.66 250.135 1026.52 251.634C1025.38 253.133 1023.84 254.275 1022.08 254.927V242.384C1022.08 242.08 1022 241.782 1021.85 241.519C1021.7 241.255 1021.49 241.037 1021.22 240.885ZM1025.64 234.211C1025.56 234.163 1025.42 234.081 1025.33 234.024L1014.83 227.934C1014.57 227.781 1014.27 227.701 1013.97 227.701C1013.67 227.701 1013.37 227.782 1013.11 227.934L1000.3 235.366V230.221C1000.3 230.194 1000.3 230.168 1000.31 230.144C1000.32 230.12 1000.34 230.1 1000.36 230.083L1010.97 223.936C1012.59 222.995 1014.45 222.537 1016.33 222.618C1018.2 222.699 1020.01 223.315 1021.55 224.393C1023.09 225.471 1024.29 226.966 1025.02 228.705C1025.74 230.444 1025.96 232.353 1025.64 234.211ZM997.887 243.383L993.451 240.81C993.428 240.798 993.408 240.782 993.393 240.76C993.378 240.739 993.368 240.714 993.366 240.689V228.378C993.366 226.493 993.903 224.648 994.91 223.057C995.918 221.466 997.356 220.197 999.054 219.398C1000.75 218.599 1002.64 218.302 1004.51 218.543C1006.37 218.784 1008.12 219.553 1009.56 220.759C1009.48 220.803 1009.34 220.881 1009.25 220.937L998.756 227.026C998.493 227.176 998.274 227.394 998.122 227.658C997.971 227.921 997.892 228.221 997.893 228.525L997.886 243.381L997.887 243.383ZM1000.3 238.164L1006 234.854L1011.71 238.162V244.781L1006 248.091L1000.3 244.781V238.164Z" fill="white"/>
<g filter="url(#filter6_d_8313_4474)">
<path d="M1164.5 93L1115.14 121.5V178.5L1164.5 207L1213.86 178.5V121.5L1164.5 93Z" fill="#00050B"/>
<path d="M1164.5 93L1115.14 121.5V178.5L1164.5 207L1213.86 178.5V121.5L1164.5 93Z" stroke="white"/>
</g>
<path d="M1180.06 173C1180.1 172.606 1180.11 172.206 1180.2 171.821C1180.71 169.49 1180.53 167.234 1179.32 165.166C1178.61 163.95 1178.64 163.017 1179.43 161.779C1181.62 158.35 1181.28 154.768 1179.45 151.308C1178.84 150.164 1178.77 149.387 1179.61 148.284C1183.07 143.737 1180.07 136.481 1174.46 135.652C1174.35 135.637 1174.23 135.595 1174.14 135.621C1172.41 136.085 1171.63 135.164 1170.72 133.77C1167.61 129.057 1160.33 129.591 1157.78 134.637C1157.32 135.551 1156.82 135.786 1155.84 135.661C1152.51 135.241 1149.08 138.042 1148.26 141.807C1147.7 144.398 1148.03 146.792 1149.93 148.816C1150.59 149.523 1150.3 150.26 1149.86 151.015C1148.33 153.683 1147.81 156.536 1148.69 159.527C1148.97 160.481 1149.5 161.383 1150.04 162.236C1150.54 163.039 1150.61 163.786 1150.14 164.584C1148.71 166.989 1148.32 169.532 1149.09 172.243C1149.16 172.479 1149.11 172.748 1149.11 173.004H1146.08C1146.09 172.897 1146.12 172.786 1146.1 172.685C1145.5 169.683 1145.65 166.77 1147.05 163.985C1147.15 163.777 1147.13 163.409 1147.01 163.201C1144.7 159.028 1144.87 154.807 1146.71 150.536C1146.81 150.304 1146.85 149.976 1146.77 149.746C1146.2 148.077 1145.6 146.427 1145 144.772C1145 144.116 1145 143.459 1145 142.803C1145.48 139.63 1146.81 136.934 1149.28 134.847C1149.47 134.689 1149.51 134.271 1149.5 133.978C1149.47 132.269 1149.28 130.558 1149.35 128.856C1149.45 126.656 1149.92 124.51 1151.23 122.676C1152.76 120.532 1155.21 120.409 1156.76 122.503C1157.5 123.499 1157.97 124.724 1158.4 125.906C1158.75 126.877 1158.87 127.939 1159.11 129.044C1162.78 126.939 1166.42 126.989 1170.1 129.116C1170.19 128.56 1170.25 128.171 1170.32 127.781C1170.66 125.866 1171.15 124 1172.4 122.459C1173.98 120.508 1176.31 120.525 1177.81 122.536C1178.33 123.219 1178.71 124.033 1179.01 124.84C1180.02 127.529 1180.06 130.348 1179.74 133.142C1179.61 134.263 1179.82 134.963 1180.64 135.663C1184.24 138.698 1185.01 145.184 1182.64 149.094C1182.24 149.744 1182.3 150.217 1182.59 150.877C1184.05 154.243 1184.42 157.759 1183.03 161.177C1182.34 162.882 1182.14 164.247 1182.84 166.002C1183.74 168.228 1183.48 170.648 1183.08 173H1180.05H1180.06ZM1152.34 133.017C1153.38 132.88 1154.27 132.702 1155.17 132.659C1155.93 132.621 1156.27 132.173 1156.18 131.551C1155.89 129.512 1155.54 127.475 1155.1 125.462C1154.99 124.926 1154.49 124.475 1154.04 123.801C1152.08 126.783 1152.05 129.818 1152.34 133.017ZM1175.18 123.869C1174.82 124.265 1174.6 124.451 1174.46 124.689C1173.19 126.873 1173 129.302 1173.01 131.746C1173.01 132.042 1173.53 132.51 1173.88 132.597C1174.81 132.825 1175.78 132.886 1176.82 133.024C1177.13 129.877 1177.1 126.816 1175.17 123.869H1175.18Z" fill="white"/>
<path d="M1164.49 155.597C1162.97 155.236 1161.34 155.114 1159.95 154.468C1156.16 152.707 1155.49 148.221 1158.44 145.23C1161.39 142.241 1166.71 141.956 1170.04 144.611C1172.13 146.28 1173.01 148.722 1172.32 150.972C1171.6 153.311 1169.28 155.077 1166.61 155.276C1165.92 155.326 1165.24 155.282 1164.56 155.282C1164.53 155.387 1164.51 155.492 1164.49 155.597H1164.49ZM1164.53 153.547C1165.8 153.278 1167.09 153.21 1168.22 152.726C1170.91 151.567 1171.34 148.661 1169.25 146.593C1166.82 144.19 1162.33 144.197 1159.9 146.606C1157.82 148.676 1158.27 151.58 1160.96 152.737C1162.06 153.206 1163.31 153.284 1164.53 153.547H1164.53Z" fill="white"/>
<path d="M1154.75 143.182C1155.8 143.19 1156.63 144.026 1156.61 145.046C1156.6 146.193 1155.54 147.311 1154.52 147.276C1153.43 147.239 1152.67 146.453 1152.69 145.396C1152.71 144.142 1153.62 143.173 1154.75 143.182Z" fill="white"/>
<path d="M1176.48 145.446C1176.48 146.495 1175.68 147.269 1174.6 147.278C1173.58 147.287 1172.54 146.127 1172.56 144.996C1172.57 143.976 1173.42 143.166 1174.46 143.182C1175.59 143.197 1176.49 144.203 1176.48 145.446Z" fill="white"/>
<path d="M1163.87 150.02C1163.67 149.713 1163.42 149.427 1163.26 149.092C1163.09 148.709 1163 148.284 1162.88 147.877C1163.29 147.794 1163.7 147.696 1164.12 147.635C1164.44 147.589 1164.78 147.549 1165.1 147.584C1165.46 147.624 1166.05 147.667 1166.11 147.853C1166.22 148.179 1166.04 148.628 1165.92 149.002C1165.77 149.433 1165.43 149.838 1165.41 150.265C1165.38 150.95 1165.17 151.317 1164.48 151.28C1163.78 151.241 1163.56 150.816 1163.87 150.018L1163.87 150.02Z" fill="white"/>
<path d="M958 242.5H718H838.25V203L849.25 192H930L1002.5 150H1115.5" stroke="white"/>
<circle cx="957.5" cy="243" r="2" fill="white"/>
<circle cx="896.5" cy="243" r="2" fill="white"/>
<circle cx="838.5" cy="243" r="2" fill="white"/>
<circle cx="1115.5" cy="150" r="2" fill="white"/>
<path d="M1116 333.5H956.75L896.5 282.5V243" stroke="white"/>
<circle cx="1115.5" cy="333" r="2" fill="white"/>
<path d="M950.5 212V230L945.5 235H921M950.5 249.5V271L915.5 292.304" stroke="white" stroke-opacity="0.15"/>
<path d="M895 294.5V354M940 258.5V267.5L913 284" stroke="white" stroke-opacity="0.15"/>
<path d="M886 347.5V291L891.75 287.5M922.542 269L902.5 281.005" stroke="white" stroke-opacity="0.15"/>
<circle cx="2" cy="2" r="2" transform="matrix(-1 0 0 1 913 283)" stroke="white" stroke-opacity="0.15"/>
<circle cx="2" cy="2" r="2" transform="matrix(-1 0 0 1 920 233)" stroke="white" stroke-opacity="0.15"/>
<circle cx="2" cy="2" r="2" transform="matrix(-1 0 0 1 992 150)" stroke="white" stroke-opacity="0.15"/>
<circle cx="2" cy="2" r="2" transform="matrix(-1 0 0 1 1022 108)" stroke="white" stroke-opacity="0.15"/>
<circle cx="2" cy="2" r="2" transform="matrix(-1 0 0 1 1017 111)" stroke="white" stroke-opacity="0.15"/>
<circle cx="2" cy="2" r="2" transform="matrix(-1 0 0 1 1012 114)" stroke="white" stroke-opacity="0.15"/>
<circle cx="2" cy="2" r="2" transform="matrix(-1 0 0 1 1264 80)" stroke="white" stroke-opacity="0.15"/>
<circle cx="2" cy="2" r="2" transform="matrix(-1 0 0 1 1259 83)" stroke="white" stroke-opacity="0.15"/>
<circle cx="2" cy="2" r="2" transform="matrix(-1 0 0 1 1254 86)" stroke="white" stroke-opacity="0.15"/>
<circle cx="2" cy="2" r="2" transform="matrix(-0.887274 -0.461242 -0.461242 0.887274 974.517 325.792)" stroke="white" stroke-opacity="0.15"/>
<circle cx="2" cy="2" r="2" transform="matrix(-0.887274 -0.461242 -0.461242 0.887274 968.697 326.148)" stroke="white" stroke-opacity="0.15"/>
<circle cx="2" cy="2" r="2" transform="matrix(-0.887274 -0.461242 -0.461242 0.887274 962.877 326.504)" stroke="white" stroke-opacity="0.15"/>
<circle cx="2" cy="2" r="2" transform="matrix(-1 0 0 1 888 347)" stroke="white" stroke-opacity="0.15"/>
<path d="M1170.5 270V212.5L1222 180.5V122" stroke="white" stroke-opacity="0.15"/>
<path d="M1229 130V185.5L1177.5 217V263" stroke="white" stroke-opacity="0.15"/>
<circle cx="2" cy="2" r="2" transform="matrix(-1 0 0 1 1231 125)" stroke="white" stroke-opacity="0.15"/>
<circle cx="2" cy="2" r="2" transform="matrix(-1 0 0 1 1224 118)" stroke="white" stroke-opacity="0.15"/>
<path d="M1224 319.5V363.5L1169.5 396V447.5" stroke="white" stroke-opacity="0.15"/>
<path d="M1231 307V367.5L1176.5 400V425.5" stroke="white" stroke-opacity="0.15"/>
<circle cx="2" cy="2" r="2" transform="matrix(-1 0 0 1 1171 447)" stroke="white" stroke-opacity="0.15"/>
<circle cx="2" cy="2" r="2" transform="matrix(-1 0 0 1 1179 425)" stroke="white" stroke-opacity="0.15"/>
<circle cx="2" cy="2" r="2" transform="matrix(-1 0 0 1 1233 303)" stroke="white" stroke-opacity="0.15"/>
<circle cx="2" cy="2" r="2" transform="matrix(-1 0 0 1 1226 315)" stroke="white" stroke-opacity="0.15"/>
<path d="M1161 453V397.5L1111 368L1062 397.5" stroke="white" stroke-opacity="0.15"/>
<path d="M1170 29L1170 84.5L1220 114L1269 84.5" stroke="white" stroke-opacity="0.15"/>
<path d="M1213 544V488.5L1163 459L1114 488.5" stroke="white" stroke-opacity="0.15"/>
<path d="M155.5 303.5L213.5 269.5" stroke="white"/>
<path d="M155.5 178L213.5 212.5" stroke="white"/>
<circle cx="213" cy="212" r="2" fill="white"/>
<circle cx="155" cy="178" r="2" fill="white"/>
<circle cx="213" cy="270" r="2" fill="white"/>
<circle cx="155" cy="303" r="2" fill="white"/>
<circle cx="312" cy="243" r="2" fill="white"/>
<circle cx="487.578" cy="252.375" r="2" transform="rotate(60.9316 487.578 252.375)" stroke="white" stroke-opacity="0.15"/>
<circle cx="761.72" cy="234.72" r="2" transform="rotate(60.9316 761.72 234.72)" stroke="white" stroke-opacity="0.15"/>
<circle cx="2" cy="2" r="2" transform="matrix(-1 0 0 1 1045 320)" stroke="white" stroke-opacity="0.15"/>
<circle cx="2" cy="2" r="2" transform="matrix(-1 0 0 1 1012 344)" stroke="white" stroke-opacity="0.15"/>
<defs>
<filter id="filter0_d_8313_4474" x="502.228" y="98.4226" width="265.545" height="291.155" filterUnits="userSpaceOnUse" color-interpolation-filters="sRGB">
<feFlood flood-opacity="0" result="BackgroundImageFix"/>
<feColorMatrix in="SourceAlpha" type="matrix" values="0 0 0 0 0 0 0 0 0 0 0 0 0 0 0 0 0 0 127 0" result="hardAlpha"/>
<feOffset/>
<feGaussianBlur stdDeviation="25"/>
<feColorMatrix type="matrix" values="0 0 0 0 0.129412 0 0 0 0 0.980392 0 0 0 0 0.564706 0 0 0 0.5 0"/>
<feBlend mode="normal" in2="BackgroundImageFix" result="effect1_dropShadow_8313_4474"/>
<feBlend mode="normal" in="SourceGraphic" in2="effect1_dropShadow_8313_4474" result="shape"/>
</filter>
<filter id="filter1_d_8313_4474" x="203.137" y="173.423" width="119.727" height="135.155" filterUnits="userSpaceOnUse" color-interpolation-filters="sRGB">
<feFlood flood-opacity="0" result="BackgroundImageFix"/>
<feColorMatrix in="SourceAlpha" type="matrix" values="0 0 0 0 0 0 0 0 0 0 0 0 0 0 0 0 0 0 127 0" result="hardAlpha"/>
<feOffset/>
<feGaussianBlur stdDeviation="5"/>
<feColorMatrix type="matrix" values="0 0 0 0 1 0 0 0 0 1 0 0 0 0 1 0 0 0 0.5 0"/>
<feBlend mode="normal" in2="BackgroundImageFix" result="effect1_dropShadow_8313_4474"/>
<feBlend mode="normal" in="SourceGraphic" in2="effect1_dropShadow_8313_4474" result="shape"/>
</filter>
<filter id="filter2_d_8313_4474" x="46.1365" y="82.4226" width="119.727" height="135.155" filterUnits="userSpaceOnUse" color-interpolation-filters="sRGB">
<feFlood flood-opacity="0" result="BackgroundImageFix"/>
<feColorMatrix in="SourceAlpha" type="matrix" values="0 0 0 0 0 0 0 0 0 0 0 0 0 0 0 0 0 0 127 0" result="hardAlpha"/>
<feOffset/>
<feGaussianBlur stdDeviation="5"/>
<feColorMatrix type="matrix" values="0 0 0 0 1 0 0 0 0 1 0 0 0 0 1 0 0 0 0.5 0"/>
<feBlend mode="normal" in2="BackgroundImageFix" result="effect1_dropShadow_8313_4474"/>
<feBlend mode="normal" in="SourceGraphic" in2="effect1_dropShadow_8313_4474" result="shape"/>
</filter>
<filter id="filter3_d_8313_4474" x="46.1365" y="264.423" width="119.727" height="135.155" filterUnits="userSpaceOnUse" color-interpolation-filters="sRGB">
<feFlood flood-opacity="0" result="BackgroundImageFix"/>
<feColorMatrix in="SourceAlpha" type="matrix" values="0 0 0 0 0 0 0 0 0 0 0 0 0 0 0 0 0 0 127 0" result="hardAlpha"/>
<feOffset/>
<feGaussianBlur stdDeviation="5"/>
<feColorMatrix type="matrix" values="0 0 0 0 1 0 0 0 0 1 0 0 0 0 1 0 0 0 0.5 0"/>
<feBlend mode="normal" in2="BackgroundImageFix" result="effect1_dropShadow_8313_4474"/>
<feBlend mode="normal" in="SourceGraphic" in2="effect1_dropShadow_8313_4474" result="shape"/>
</filter>
<filter id="filter4_d_8313_4474" x="1104.14" y="264.423" width="119.727" height="135.155" filterUnits="userSpaceOnUse" color-interpolation-filters="sRGB">
<feFlood flood-opacity="0" result="BackgroundImageFix"/>
<feColorMatrix in="SourceAlpha" type="matrix" values="0 0 0 0 0 0 0 0 0 0 0 0 0 0 0 0 0 0 127 0" result="hardAlpha"/>
<feOffset/>
<feGaussianBlur stdDeviation="5"/>
<feColorMatrix type="matrix" values="0 0 0 0 1 0 0 0 0 1 0 0 0 0 1 0 0 0 0.5 0"/>
<feBlend mode="normal" in2="BackgroundImageFix" result="effect1_dropShadow_8313_4474"/>
<feBlend mode="normal" in="SourceGraphic" in2="effect1_dropShadow_8313_4474" result="shape"/>
</filter>
<filter id="filter5_d_8313_4474" x="947.137" y="173.423" width="119.727" height="135.155" filterUnits="userSpaceOnUse" color-interpolation-filters="sRGB">
<feFlood flood-opacity="0" result="BackgroundImageFix"/>
<feColorMatrix in="SourceAlpha" type="matrix" values="0 0 0 0 0 0 0 0 0 0 0 0 0 0 0 0 0 0 127 0" result="hardAlpha"/>
<feOffset/>
<feGaussianBlur stdDeviation="5"/>
<feColorMatrix type="matrix" values="0 0 0 0 1 0 0 0 0 1 0 0 0 0 1 0 0 0 0.5 0"/>
<feBlend mode="normal" in2="BackgroundImageFix" result="effect1_dropShadow_8313_4474"/>
<feBlend mode="normal" in="SourceGraphic" in2="effect1_dropShadow_8313_4474" result="shape"/>
</filter>
<filter id="filter6_d_8313_4474" x="1104.64" y="82.4226" width="119.727" height="135.155" filterUnits="userSpaceOnUse" color-interpolation-filters="sRGB">
<feFlood flood-opacity="0" result="BackgroundImageFix"/>
<feColorMatrix in="SourceAlpha" type="matrix" values="0 0 0 0 0 0 0 0 0 0 0 0 0 0 0 0 0 0 127 0" result="hardAlpha"/>
<feOffset/>
<feGaussianBlur stdDeviation="5"/>
<feColorMatrix type="matrix" values="0 0 0 0 1 0 0 0 0 1 0 0 0 0 1 0 0 0 0.5 0"/>
<feBlend mode="normal" in2="BackgroundImageFix" result="effect1_dropShadow_8313_4474"/>
<feBlend mode="normal" in="SourceGraphic" in2="effect1_dropShadow_8313_4474" result="shape"/>
</filter>
</defs>
</svg>
