<svg width="53" height="42" viewBox="0 0 53 42" fill="none" xmlns="http://www.w3.org/2000/svg">
<path d="M14.9098 30.7902H44.396V30.7807C45.5133 30.7287 46.6048 30.427 47.5899 29.8977C48.5751 29.3685 49.4288 28.6252 50.0883 27.7226C50.7478 26.8201 51.1962 25.7813 51.4005 24.6826C51.6048 23.584 51.5598 22.4536 51.2688 21.3747C50.9778 20.2958 50.4483 19.2958 49.7191 18.4484C48.99 17.601 48.0798 16.9278 47.0557 16.4784C46.0316 16.029 44.9196 15.8147 43.8016 15.8515C42.6836 15.8883 41.5882 16.1751 40.5959 16.6909C39.9834 15.2786 39.0566 14.0246 37.8858 13.0241C36.715 12.0237 35.3312 11.3032 33.8396 10.9176M8.58453 10.9176C6.41331 11.4769 4.48986 12.7414 3.11684 14.5122C1.74381 16.283 0.999137 18.4596 1 20.6995C1.00086 22.9394 1.74721 25.1154 3.12161 26.8852C4.496 28.6549 6.42043 29.918 8.59207 30.4755" stroke="white" stroke-width="1.83536" stroke-linecap="round" stroke-linejoin="round"/>
<path d="M20.2489 17.111L16.3149 18.4919L18.0461 22.1599" stroke="#21FA90" stroke-width="1.83536" stroke-linecap="round" stroke-linejoin="round"/>
<path d="M16.4035 18.5569C18.1973 19.6107 20.2895 20.0427 22.3546 19.7858C24.4196 19.5288 26.3418 18.5974 27.8221 17.1363C29.3024 15.6753 30.2579 13.7664 30.5399 11.7068C30.8219 9.64716 30.4147 7.55216 29.3815 5.74765C28.3483 3.94314 26.7471 2.5303 24.8269 1.72887C22.9068 0.927446 20.7753 0.782369 18.7641 1.31621C16.7529 1.85004 14.9747 3.03287 13.706 4.6807C12.4373 6.32853 11.7494 8.34899 11.7491 10.4278V24.4903" stroke="#21FA90" stroke-width="1.83536" stroke-linecap="round" stroke-linejoin="round"/>
<path opacity="0.2" d="M11.7491 39.3573V41" stroke="#21FA90" stroke-width="1.83536" stroke-linecap="round" stroke-linejoin="round"/>
<path opacity="0.4" d="M11.7642 34.1878V36.7828" stroke="#21FA90" stroke-width="1.83536" stroke-linecap="round" stroke-linejoin="round"/>
<path opacity="0.7" d="M11.7491 27.1627V31.5013" stroke="#21FA90" stroke-width="1.83536" stroke-linecap="round" stroke-linejoin="round"/>
</svg>
