<svg width="16" height="16" viewBox="0 0 16 16" fill="none" xmlns="http://www.w3.org/2000/svg">
<path d="M6 13.5V4.94496C6 4.66882 6.22386 4.44496 6.5 4.44496H10.5365C10.6594 4.44496 10.7779 4.49019 10.8696 4.57203L13.833 7.21858C13.9393 7.31345 14 7.4491 14 7.59152V13.5C14 13.7761 13.7761 14 13.5 14H6.5C6.22386 14 6 13.7761 6 13.5Z" stroke="white" stroke-linecap="round"/>
<path d="M10.5 7.78923V4.44496L14 7.78923H10.5Z" stroke="white" stroke-linecap="round" stroke-linejoin="round"/>
<path d="M9.5 3.96723L7.36816 2.12196C7.27729 2.0433 7.16112 2.00001 7.04093 2.00001H4.61364H2.5C2.22386 2.00001 2 2.22386 2 2.50001L2.00001 10.6335C2.00001 10.9096 2.22386 11.1335 2.50001 11.1335H5.50001" stroke="white" stroke-linecap="round"/>
</svg>
