<svg width="24" height="24" viewBox="0 0 24 24" fill="none" xmlns="http://www.w3.org/2000/svg">
<circle cx="12" cy="12" r="12" fill="white"/>
<path d="M8.40479 15.5045H17.7421V15.5015C18.0959 15.4849 18.4415 15.3886 18.7535 15.2197C19.0654 15.0509 19.3358 14.8137 19.5446 14.5258C19.7535 14.2378 19.8955 13.9064 19.9602 13.5559C20.0249 13.2054 20.0106 12.8447 19.9185 12.5005C19.8263 12.1563 19.6586 11.8372 19.4277 11.5669C19.1968 11.2965 18.9086 11.0817 18.5843 10.9383C18.26 10.7949 17.9079 10.7266 17.5538 10.7383C17.1998 10.7501 16.8529 10.8416 16.5387 11.0061C16.3448 10.5556 16.0512 10.1554 15.6805 9.83625C15.3097 9.51706 14.8715 9.28721 14.3992 9.16418M6.40177 9.16418C5.71422 9.34262 5.10512 9.74606 4.67033 10.311C4.23554 10.876 3.99973 11.5704 4 12.2851C4.00027 12.9997 4.23662 13.6939 4.67184 14.2586C5.10707 14.8232 5.71647 15.2262 6.40416 15.4041" stroke="#00050B" stroke-linecap="round" stroke-linejoin="round"/>
<path d="M10.0954 11.1402L8.84961 11.5807L9.39784 12.751" stroke="#21FA90" stroke-linecap="round" stroke-linejoin="round"/>
<path d="M8.8777 11.6015C9.44576 11.9377 10.1083 12.0755 10.7622 11.9936C11.4161 11.9116 12.0248 11.6144 12.4936 11.1483C12.9624 10.6821 13.2649 10.0731 13.3542 9.41598C13.4435 8.75886 13.3146 8.09045 12.9874 7.51473C12.6602 6.939 12.1532 6.48824 11.5451 6.23254C10.9371 5.97685 10.2621 5.93057 9.62524 6.10088C8.98835 6.2712 8.42524 6.64858 8.0235 7.17432C7.62175 7.70005 7.40389 8.34468 7.40381 9.00792V13.4945" stroke="#21FA90" stroke-linecap="round" stroke-linejoin="round"/>
<path opacity="0.2" d="M7.40381 18.2378V18.7619" stroke="#21FA90" stroke-linecap="round" stroke-linejoin="round"/>
<path opacity="0.4" d="M7.40869 16.5885V17.4164" stroke="#21FA90" stroke-linecap="round" stroke-linejoin="round"/>
<path opacity="0.7" d="M7.40381 14.3471V15.7314" stroke="#21FA90" stroke-linecap="round" stroke-linejoin="round"/>
</svg>
